<svg width="17" height="17" viewBox="0 0 17 17" fill="none" xmlns="http://www.w3.org/2000/svg">
<path fill-rule="evenodd" clip-rule="evenodd" d="M4.25083 1C2.45545 1 1 2.45545 1 4.25083V11.7525C1 13.5479 2.45545 15.0033 4.25083 15.0033H11.7525C13.5479 15.0033 15.0033 13.5479 15.0033 11.7525V4.25083C15.0033 2.45545 13.5479 1 11.7525 1H4.25083ZM0 4.25083C0 1.90316 1.90316 0 4.25083 0H11.7525C14.1002 0 16.0033 1.90316 16.0033 4.25083V11.7525C16.0033 14.1002 14.1002 16.0033 11.7525 16.0033H4.25083C1.90316 16.0033 0 14.1002 0 11.7525V4.25083ZM8.40116 5.49544C7.88087 5.41829 7.3495 5.50716 6.88263 5.74941C6.41575 5.99166 6.03715 6.37496 5.80068 6.84478C5.5642 7.31461 5.48189 7.84703 5.56545 8.36633C5.64902 8.88563 5.8942 9.36536 6.26612 9.73729C6.63805 10.1092 7.11778 10.3544 7.63708 10.438C8.15638 10.5215 8.6888 10.4392 9.15863 10.2027C9.62845 9.96626 10.0118 9.58766 10.254 9.12078C10.4963 8.65391 10.5851 8.12254 10.508 7.60225C10.4293 7.07153 10.182 6.58019 9.80259 6.20082C9.42321 5.82144 8.93188 5.57414 8.40116 5.49544ZM6.42206 4.86178C7.07563 4.52266 7.81949 4.39825 8.54785 4.50626C9.29079 4.61643 9.97861 4.96262 10.5097 5.49371C11.0408 6.0248 11.387 6.71262 11.4972 7.45556C11.6052 8.18392 11.4808 8.92778 11.1416 9.58135C10.8025 10.2349 10.2659 10.7649 9.60822 11.096C8.95051 11.427 8.20517 11.5422 7.47821 11.4253C6.75124 11.3083 6.07967 10.965 5.55901 10.4444C5.03836 9.92374 4.69513 9.25217 4.57815 8.5252C4.46118 7.79824 4.5764 7.05289 4.90744 6.39519C5.23848 5.73749 5.76848 5.20091 6.42206 4.86178ZM12.1274 3.37574C11.8513 3.37574 11.6274 3.5996 11.6274 3.87574C11.6274 4.15188 11.8513 4.37574 12.1274 4.37574H12.135C12.4112 4.37574 12.635 4.15188 12.635 3.87574C12.635 3.5996 12.4112 3.37574 12.135 3.37574H12.1274Z" fill="black"/>
</svg>
