<svg width="16" height="16" viewBox="0 0 16 16" fill="none" xmlns="http://www.w3.org/2000/svg">
<path fill-rule="evenodd" clip-rule="evenodd" d="M1 1.974C1 1.44433 1.43946 1 2.00017 1C2.56087 1 3.00033 1.44433 3.00033 1.974C3.00033 2.50367 2.56087 2.948 2.00017 2.948C1.43946 2.948 1 2.50367 1 1.974ZM2.00017 0C0.903836 0 0 0.875532 0 1.974C0 3.07247 0.903836 3.948 2.00017 3.948C3.0965 3.948 4.00033 3.07247 4.00033 1.974C4.00033 0.875532 3.0965 0 2.00017 0ZM11 5.42133C9.9362 5.42133 8.9177 5.83664 8.16811 6.57315C7.41882 7.30937 6.99951 8.30602 6.99951 9.34333V14.0023H8.99985V9.34333C8.99985 8.81693 9.21275 8.3139 9.58881 7.9444C9.96456 7.57521 10.4723 7.36933 11 7.36933C11.5277 7.36933 12.0355 7.57521 12.4112 7.9444C12.7873 8.3139 13.0002 8.81693 13.0002 9.34333V14.0023H15.0005V9.34333C15.0005 8.30602 14.5812 7.30937 13.8319 6.57315C13.0823 5.83664 12.0638 5.42133 11 5.42133ZM11 4.42133C9.67661 4.42133 8.40567 4.9378 7.46725 5.85985C6.52853 6.7822 5.99951 8.03507 5.99951 9.34333V14.5023C5.99951 14.7785 6.22337 15.0023 6.49951 15.0023H9.49985C9.77599 15.0023 9.99985 14.7785 9.99985 14.5023V9.34333C9.99985 9.08788 10.103 8.84107 10.2897 8.6577C10.4766 8.47405 10.7319 8.36933 11 8.36933C11.2681 8.36933 11.5234 8.47405 11.7104 8.6577C11.897 8.84107 12.0002 9.08788 12.0002 9.34333V14.5023C12.0002 14.7785 12.224 15.0023 12.5002 15.0023H15.5005C15.7767 15.0023 16.0005 14.7785 16.0005 14.5023V9.34333C16.0005 8.03507 15.4715 6.7822 14.5328 5.85985C13.5944 4.9378 12.3234 4.42133 11 4.42133ZM0 5.65831C0 5.38217 0.223858 5.15831 0.5 5.15831H3.50033C3.77648 5.15831 4.00033 5.38217 4.00033 5.65831V14.5023C4.00033 14.7785 3.77648 15.0023 3.50033 15.0023H0.5C0.223858 15.0023 0 14.7785 0 14.5023V5.65831ZM1 6.15831V14.0023H3.00033V6.15831H1Z" fill="black"/>
</svg>
